<svg width="24" height="24" viewBox="0 0 24 24" fill="none" xmlns="http://www.w3.org/2000/svg">
	<path class="st0" d="M21.6,7.1c0,0.2,0,0.4,0,0.6c0,6.5-5,14-14,14c-2.8,0-5.4-0.8-7.6-2.2c0.4,0,0.8,0.1,1.2,0.1
	c2.2,0,4.4-0.7,6.1-2.1c-1,0-2-0.4-2.9-1c-0.8-0.6-1.4-1.5-1.8-2.4c0.3,0,0.6,0.1,0.9,0.1c0.4,0,0.9-0.1,1.3-0.2
	c-1.1-0.2-2.1-0.8-2.8-1.7s-1.1-2-1.1-3.1V9.1c0.7,0.4,1.4,0.6,2.2,0.6C2.5,9.3,1.9,8.7,1.6,7.9C1.2,7.2,1,6.4,1,5.6
	c0-0.9,0.2-1.8,0.7-2.5c1.2,1.5,2.8,2.8,4.5,3.7c1.8,0.9,3.7,1.4,5.6,1.5c-0.1-0.4-0.1-0.7-0.1-1.1c0-0.6,0.1-1.3,0.4-1.9
	c0.2-0.6,0.6-1.1,1.1-1.6s1-0.8,1.6-1.1c0.6-0.2,1.2-0.4,1.9-0.4c1.4,0,2.7,0.6,3.6,1.6c1.1-0.2,2.2-0.6,3.1-1.2
	c-0.4,1.1-1.1,2.1-2.2,2.7c1-0.1,1.9-0.4,2.8-0.8C23.4,5.5,22.5,6.4,21.6,7.1z" fill="white"/>
</svg>
